#define iMaze_1_4_width 168
#define iMaze_1_4_height 43
static unsigned char iMaze_1_4_bits[] = {
 0x00,0x00,0x00,0x00,0x00,0x00,0x0e,0x00,0x00,0x00,0x00,0x00,0x00,0x00,0x00,
 0x00,0x00,0x00,0x00,0x00,0x00,0x00,0x00,0x00,0x00,0x38,0x80,0x1f,0x00,0x00,
 0x00,0x00,0x00,0x00,0x00,0x00,0x00,0x00,0x00,0x00,0x00,0x00,0x00,0x00,0x00,
 0x00,0x7c,0x80,0x1f,0x00,0x00,0x00,0x00,0x00,0x00,0x00,0x00,0x00,0x00,0x00,
 0x00,0x00,0x00,0x00,0x00,0x00,0x00,0x7e,0xc0,0x0f,0x00,0x00,0x00,0x00,0x00,
 0x00,0x00,0x00,0x00,0x00,0x00,0x00,0x00,0x00,0x00,0x00,0x00,0x00,0x3f,0xe0,
 0x0f,0x00,0x00,0x00,0x00,0x00,0x00,0x00,0x00,0x00,0x00,0x00,0x00,0x00,0x00,
 0x00,0x00,0x00,0x80,0x3f,0xf0,0x07,0x00,0x00,0x00,0x00,0x00,0x00,0x00,0x00,
 0x00,0x00,0x00,0x00,0x00,0x00,0x00,0x00,0x00,0xc0,0x1f,0xf8,0x07,0x00,0x00,
 0x00,0x00,0x00,0x00,0x00,0x00,0x00,0x00,0x00,0x00,0x00,0x00,0x00,0x00,0x00,
 0xc0,0x1f,0xfc,0x03,0x00,0x00,0x00,0x00,0x00,0x00,0x00,0x00,0x00,0x00,0x00,
 0x00,0x00,0x00,0x00,0x00,0x00,0xe0,0x0f,0xfc,0x03,0x00,0x00,0x00,0x00,0x00,
 0x00,0x00,0x00,0x00,0x00,0x00,0x00,0x00,0x00,0x00,0x00,0x00,0xf0,0x07,0xfe,
 0x01,0x00,0x00,0x00,0x00,0x00,0x00,0x00,0x00,0x00,0x00,0x00,0x00,0x00,0x00,
 0x00,0xc0,0x01,0xf8,0x07,0xff,0x01,0x00,0x00,0x00,0x00,0x00,0x00,0x00,0x00,
 0x00,0x00,0x00,0x00,0x00,0x70,0x00,0xf0,0x01,0xfc,0x83,0xf7,0x00,0x00,0x00,
 0x00,0x00,0x00,0x00,0x00,0x00,0x80,0x03,0x00,0x00,0x00,0xfc,0x00,0xf0,0x01,
 0xdc,0x83,0x7b,0x00,0x00,0x00,0x00,0x00,0x00,0x00,0x00,0x00,0xc0,0x07,0x00,
 0x00,0x00,0xfe,0x00,0xf8,0x00,0xce,0xc1,0x7b,0x00,0x00,0x00,0x00,0x00,0x00,
 0x00,0x00,0x00,0xf0,0x07,0x00,0x00,0x80,0x7f,0x00,0xf8,0x00,0xef,0xe1,0x3d,
 0x00,0x00,0x00,0x00,0x00,0x00,0x00,0x00,0x00,0xf8,0x03,0x00,0x00,0xc0,0x7f,
 0x00,0x38,0x80,0xe7,0xf0,0x3c,0x00,0x00,0x00,0x00,0x00,0x00,0x00,0x00,0x00,
 0xfe,0x03,0x00,0x00,0xe0,0x3f,0x00,0x00,0x80,0xf3,0x70,0x1e,0x00,0x00,0x00,
 0x00,0x00,0x00,0x00,0x00,0x80,0xff,0x01,0x00,0x00,0xf0,0x1e,0x00,0x00,0xc0,
 0xf3,0x78,0x1e,0x00,0x00,0x00,0x00,0x00,0x00,0x00,0x00,0xc0,0xff,0x00,0x00,
 0x00,0x7c,0x1f,0x00,0x00,0xe0,0x79,0x3c,0x0f,0x00,0x00,0x00,0x00,0x00,0x00,
 0x00,0x00,0xe0,0xfb,0x00,0x00,0x00,0x9e,0x0f,0x00,0x00,0xe0,0x78,0x1c,0x0f,
 0x00,0x00,0x00,0x00,0x00,0x00,0x00,0x00,0xe0,0x78,0x00,0x00,0x00,0x8f,0x0f,
 0x00,0x00,0xf0,0x3c,0x9e,0x07,0xc0,0x07,0x00,0x00,0x00,0x00,0x00,0x00,0x00,
 0x7c,0x00,0x00,0x80,0xc7,0x07,0x00,0x07,0x78,0x3c,0x8f,0x07,0xe0,0x0f,0xff,
 0x0f,0xe0,0x01,0x00,0x00,0x00,0x3c,0x00,0x00,0xc0,0xc3,0x03,0x80,0x07,0x78,
 0x3c,0xc7,0x07,0xf8,0x0f,0xff,0x1f,0xf8,0x03,0x00,0x00,0x00,0x3e,0x00,0x00,
 0xe0,0xe1,0x03,0x80,0x03,0x3c,0x9e,0xc7,0x03,0x7c,0x0f,0xfe,0x0f,0xfe,0x03,
 0x00,0x00,0x00,0x1e,0x00,0x00,0xf0,0xe0,0x01,0xc0,0x03,0x1c,0xde,0xe3,0x03,
 0x3e,0x0e,0xc0,0x07,0xdf,0x03,0x00,0x00,0x00,0x0f,0x00,0x00,0x78,0xf0,0x01,
 0xe0,0x01,0x1e,0xde,0xe1,0x01,0x1e,0x0f,0xe0,0x83,0xcf,0x01,0x00,0x00,0x00,
 0x0f,0x00,0x00,0xfc,0xff,0x1f,0xe0,0x00,0x0f,0xfe,0xe1,0x01,0x8f,0x07,0xf0,
 0xc0,0xe7,0x00,0x00,0x00,0x80,0x07,0x00,0x00,0xfc,0xff,0x1f,0xf0,0x00,0x0f,
 0xff,0xf0,0x81,0x87,0x07,0x78,0xc0,0xf3,0x00,0x00,0x00,0x80,0x07,0x00,0x00,
 0xfe,0xff,0x0f,0x70,0x80,0x07,0xff,0xf0,0x80,0xc7,0x07,0x3c,0xe0,0x79,0x00,
 0x00,0x00,0xc0,0x03,0x00,0x00,0xfe,0x7c,0x00,0x78,0x80,0x07,0x7f,0xf8,0xc0,
 0xc3,0x03,0x1e,0xf0,0x3d,0x00,0x00,0x00,0xc0,0x03,0x00,0x00,0x1e,0x3e,0x00,
 0x38,0xc0,0x03,0x3f,0x78,0xc0,0xe3,0x03,0x0f,0xf0,0x1f,0x0e,0x00,0x00,0xe0,
 0x01,0x00,0x00,0x00,0x3e,0x00,0x3c,0xc0,0x03,0x1f,0x78,0xc0,0xe1,0x81,0x07,
 0xf0,0x07,0x0f,0x00,0x00,0xe0,0x01,0x00,0x00,0x00,0x1f,0x00,0x3c,0xe0,0x01,
 0x0e,0x7c,0xe0,0xf1,0xc1,0x03,0xf8,0x81,0x07,0x00,0x00,0xf0,0x00,0x00,0x00,
 0x00,0x1f,0x00,0x1e,0xe0,0x01,0x00,0x3c,0xe0,0xf1,0xe1,0x01,0x78,0xc0,0x03,
 0x00,0x00,0xf0,0x00,0x00,0x00,0x00,0x0f,0x00,0x1e,0xf0,0x00,0x00,0x3c,0xe0,
 0xf9,0xe1,0x7f,0x78,0xe0,0x01,0x00,0x00,0x78,0x00,0x00,0x00,0x80,0x0f,0x00,
 0x0e,0xf0,0x00,0x00,0x3c,0xe0,0xfd,0xf1,0xff,0xf8,0xf8,0x00,0x00,0x00,0x78,
 0x00,0x00,0x00,0x80,0x07,0x00,0x0f,0xf8,0x00,0x00,0x3e,0xe0,0xdf,0xf9,0xff,
 0xf8,0x7f,0x00,0x00,0x00,0x78,0x00,0x00,0x00,0xc0,0x07,0x00,0x0f,0x78,0x00,
 0x00,0x3e,0xc0,0xcf,0xff,0x21,0xf0,0x1f,0x00,0x00,0x00,0x3c,0x00,0x70,0x00,
 0xc0,0x03,0x00,0x07,0x7c,0x00,0x00,0x3e,0x80,0x87,0x7f,0x00,0xe0,0x07,0x00,
 0x00,0x00,0x3c,0x00,0x78,0x00,0xc0,0x03,0x00,0x02,0x3c,0x00,0x00,0x3e,0x00,
 0x00,0x07,0x00,0x00,0x00,0x00,0x00,0x00,0x18,0x00,0x7c,0x00,0x80,0x01,0x00,
 0x00,0x3c,0x00,0x00,0x3e,0x00,0x00,0x00,0x00,0x00,0x00,0x00,0x00,0x00,0x00,
 0x00,0x7c,0x00,0x00,0x00,0x00,0x00,0x1e,0x00,0x00,0x1c,0x00,0x00,0x00,0x00,
 0x00,0x00,0x00,0x00,0x00,0x00,0x00,0x3c,0x00,0x00,0x00,0x00,0x00,0x0e,0x00,
 0x00,0x00,0x00,0x00,0x00,0x00,0x00,0x00,0x00,0x00,0x00,0x00,0x00,0x1c,0x00,
 0x00,0x00,0x00};
